<svg width="78" height="45" viewBox="0 0 78 45" fill="none" xmlns="http://www.w3.org/2000/svg">
<path d="M13.6885 5.624L13.4645 3.608C13.4432 3.33067 13.3898 3.128 13.3045 3C13.2405 2.85067 13.0805 2.73333 12.8245 2.648C12.5685 2.54133 12.2698 2.488 11.9285 2.488C11.6085 2.46667 11.2992 2.456 11.0005 2.456H9.3045L8.5045 8.664L13.0805 8.44C13.1232 8.84533 13.1125 9.272 13.0485 9.72C13.0058 10.1467 12.9098 10.5413 12.7605 10.904L8.2485 10.744L7.4485 17.112H9.2085C9.67783 17.112 10.1152 17.0907 10.5205 17.048C10.9258 17.0053 11.2672 16.9413 11.5445 16.856C11.7792 16.7707 11.9605 16.6533 12.0885 16.504C12.2165 16.3333 12.3338 16.1093 12.4405 15.832L13.5285 13.304L15.5765 13.496C15.5125 14.3707 15.4058 15.2773 15.2565 16.216C15.1072 17.1333 14.9045 18.0613 14.6485 19H0.7605L0.9525 17.336L2.4565 17.048C2.69117 17.0053 2.8725 16.9307 3.0005 16.824C3.1285 16.7173 3.20317 16.536 3.2245 16.28L4.8245 3.384C4.86717 3.10667 4.8245 2.92533 4.6965 2.84C4.58983 2.73333 4.4085 2.65867 4.1525 2.616L2.7445 2.328L2.9365 0.664H16.4405C16.3978 1.432 16.3125 2.24267 16.1845 3.096C16.0778 3.928 15.9285 4.77067 15.7365 5.624H13.6885ZM22.0805 19.288C20.9072 19.288 19.9472 18.8187 19.2005 17.88C18.4538 16.9413 18.0912 15.6187 18.1125 13.912C18.1338 12.312 18.4645 10.8613 19.1045 9.56C19.7445 8.23733 20.6192 7.192 21.7285 6.424C22.8378 5.63467 24.1072 5.24 25.5365 5.24C26.2192 5.24 26.8912 5.31467 27.5525 5.464C28.2138 5.592 28.7898 5.74133 29.2805 5.912L28.1285 8.12C27.7232 7.82133 27.3178 7.576 26.9125 7.384C26.5285 7.192 26.0592 7.096 25.5045 7.096C24.9712 7.096 24.5125 7.26667 24.1285 7.608C23.7445 7.928 23.4245 8.376 23.1685 8.952C22.9125 9.528 22.7205 10.1787 22.5925 10.904C22.4645 11.6293 22.4005 12.3867 22.4005 13.176C22.3792 14.2427 22.4858 15.064 22.7205 15.64C22.9552 16.1947 23.2645 16.472 23.6485 16.472C23.9258 16.472 24.2032 16.3653 24.4805 16.152C24.7792 15.9387 25.0885 15.608 25.4085 15.16C25.7285 14.712 26.0378 14.1573 26.3365 13.496L26.8165 13.72C26.4965 15.5547 25.8992 16.9413 25.0245 17.88C24.1712 18.8187 23.1898 19.288 22.0805 19.288ZM28.3525 19.224C27.6058 19.224 27.0725 19.032 26.7525 18.648C26.4325 18.2427 26.2512 17.6667 26.2085 16.92C26.1872 16.6427 26.1765 16.2693 26.1765 15.8C26.1765 15.3307 26.1765 14.936 26.1765 14.616L27.1685 6.84L30.5605 5.08L31.3285 5.72L30.2725 14.264C30.2512 14.52 30.2192 14.7973 30.1765 15.096C30.1552 15.3733 30.1445 15.5973 30.1445 15.768C30.1445 16.152 30.2725 16.344 30.5285 16.344C30.6778 16.344 30.8805 16.2907 31.1365 16.184C31.4138 16.056 31.7978 15.8533 32.2885 15.576L32.9925 17.112C32.2672 17.7733 31.4885 18.296 30.6565 18.68C29.8458 19.0427 29.0778 19.224 28.3525 19.224ZM34.8783 19L35.9983 10.328C36.0409 10.0933 36.0729 9.816 36.0943 9.496C36.1369 9.15467 36.1583 8.856 36.1583 8.6C36.1583 8.25867 36.0729 8.024 35.9023 7.896C35.7316 7.74667 35.4756 7.672 35.1343 7.672H34.1743L34.3663 6.072C35.1343 5.77333 35.8383 5.56 36.4783 5.432C37.1183 5.304 37.6836 5.24 38.1743 5.24C38.9849 5.24 39.5396 5.432 39.8383 5.816C40.1369 6.2 40.2649 6.712 40.2223 7.352L40.0943 10.136L39.0383 19H34.8783ZM39.6463 11.096C40.3289 8.83467 41.0543 7.256 41.8223 6.36C42.5903 5.44267 43.3903 4.984 44.2223 4.984C44.7769 4.984 45.1716 5.112 45.4063 5.368C45.6409 5.624 45.7583 6.05067 45.7583 6.648C45.7583 7.11733 45.7156 7.55467 45.6303 7.96C45.5449 8.36533 45.4489 8.74933 45.3423 9.112H44.0623C43.1023 9.112 42.2809 9.31467 41.5983 9.72C40.9156 10.1253 40.2863 10.936 39.7103 12.152L39.6463 11.096ZM57.0803 19.224C56.4189 19.224 55.8963 19.064 55.5123 18.744C55.1496 18.4027 54.9683 17.8587 54.9683 17.112C54.9683 16.6427 55.0003 16.1947 55.0642 15.768C55.1283 15.32 55.2029 14.8293 55.2883 14.296C55.3736 13.784 55.4589 13.2507 55.5443 12.696C55.6296 12.12 55.7043 11.5653 55.7683 11.032C55.8323 10.4987 55.8643 10.04 55.8643 9.656C55.8643 9.16533 55.7896 8.78133 55.6403 8.504C55.5123 8.20533 55.2669 8.056 54.9043 8.056C54.6483 8.056 54.3496 8.152 54.0083 8.344C53.6669 8.536 53.3149 8.83467 52.9523 9.24C52.5896 9.624 52.2589 10.1147 51.9603 10.712L51.6403 9.88C52.2589 8.19467 52.9949 7 53.8483 6.296C54.7229 5.592 55.6829 5.24 56.7283 5.24C57.7309 5.24 58.5309 5.57067 59.1283 6.232C59.7469 6.872 60.0563 7.768 60.0563 8.92C60.0563 9.496 60.0136 10.0827 59.9283 10.68C59.8643 11.256 59.7789 11.8213 59.6723 12.376C59.5656 12.9307 59.4696 13.4533 59.3843 13.944C59.2989 14.392 59.2349 14.7653 59.1923 15.064C59.1496 15.3627 59.1283 15.6293 59.1283 15.864C59.1283 16.184 59.2563 16.344 59.5123 16.344C59.6616 16.344 59.8749 16.2907 60.1523 16.184C60.4509 16.056 60.8243 15.8533 61.2723 15.576L61.9763 17.08C61.2509 17.8053 60.4509 18.3493 59.5763 18.712C58.7016 19.0533 57.8696 19.224 57.0803 19.224ZM47.1283 19L48.2483 10.328C48.2909 10.0933 48.3229 9.80533 48.3443 9.464C48.3869 9.10133 48.4083 8.81333 48.4083 8.6C48.4083 8.25867 48.3229 8.024 48.1523 7.896C47.9816 7.74667 47.7256 7.672 47.3843 7.672H46.4243L46.6163 6.072C47.3843 5.77333 48.0883 5.56 48.7283 5.432C49.3896 5.304 49.9656 5.24 50.4563 5.24C51.2669 5.24 51.8109 5.44267 52.0883 5.848C52.3656 6.232 52.4936 6.744 52.4723 7.384L52.4403 9.592L51.3203 19H47.1283ZM0.7605 44L0.9525 42.336L2.4565 42.048C2.69117 42.0053 2.8725 41.9307 3.0005 41.824C3.1285 41.7173 3.20317 41.536 3.2245 41.28L4.7925 28.576C4.83517 28.2133 4.80317 27.9787 4.6965 27.872C4.58983 27.744 4.4085 27.6587 4.1525 27.616L2.7445 27.328L2.9365 25.664H7.2565C7.81117 25.664 8.4085 25.6427 9.0485 25.6C9.6885 25.5573 10.3178 25.536 10.9365 25.536C12.3018 25.536 13.4752 25.696 14.4565 26.016C15.4378 26.336 16.1952 26.8373 16.7285 27.52C17.2618 28.2027 17.5285 29.1093 17.5285 30.24C17.5285 31.3067 17.2938 32.224 16.8245 32.992C16.3552 33.76 15.7472 34.3787 15.0005 34.848C14.2752 35.296 13.4858 35.616 12.6325 35.808L11.3525 36.288H7.8325L8.0565 34.464C8.22717 34.5493 8.42983 34.6133 8.6645 34.656C8.89917 34.6773 9.09117 34.688 9.2405 34.688C10.4352 34.688 11.3738 34.2827 12.0565 33.472C12.7392 32.6613 13.0805 31.6267 13.0805 30.368C13.0805 29.6853 12.9738 29.12 12.7605 28.672C12.5685 28.2027 12.2698 27.8507 11.8645 27.616C11.4592 27.3813 10.9578 27.264 10.3605 27.264C10.2112 27.264 10.0405 27.2747 9.8485 27.296C9.67783 27.296 9.50717 27.3067 9.3365 27.328L7.5765 41.408C7.55517 41.6213 7.5765 41.7707 7.6405 41.856C7.72583 41.92 7.87517 41.9733 8.0885 42.016L9.5605 42.336L9.3685 44H0.7605ZM14.2965 44.224C13.5925 44.224 13.0592 44.064 12.6965 43.744C12.3552 43.424 12.0672 42.9867 11.8325 42.432C11.6192 41.9413 11.4058 41.3333 11.1925 40.608C11.0005 39.8613 10.8085 39.072 10.6165 38.24C10.4245 37.408 10.2538 36.608 10.1045 35.84L14.1045 35.072C14.3392 36.1813 14.6165 37.2693 14.9365 38.336C15.2565 39.4027 15.5552 40.1813 15.8325 40.672C16.0245 41.0133 16.1952 41.2587 16.3445 41.408C16.5152 41.5573 16.7392 41.632 17.0165 41.632C17.3152 41.632 17.6992 41.5787 18.1685 41.472L18.4565 43.232C17.8592 43.488 17.1658 43.7227 16.3765 43.936C15.6085 44.128 14.9152 44.224 14.2965 44.224ZM27.823 30.048C29.1883 30.048 30.2123 30.368 30.895 31.008C31.599 31.648 31.951 32.448 31.951 33.408C31.951 34.2613 31.6523 34.9973 31.055 35.616C30.479 36.2347 29.5937 36.736 28.399 37.12C27.2043 37.504 25.6897 37.7707 23.855 37.92L23.919 36.416C25.1137 36.2453 26.0097 35.9787 26.607 35.616C27.2257 35.2533 27.6417 34.8587 27.855 34.432C28.0683 33.984 28.175 33.5787 28.175 33.216C28.175 32.832 28.079 32.5227 27.887 32.288C27.695 32.0533 27.4283 31.936 27.087 31.936C26.575 31.936 26.1163 32.2027 25.711 32.736C25.3057 33.2693 24.9857 33.9733 24.751 34.848C24.5377 35.7013 24.431 36.6507 24.431 37.696C24.431 39.04 24.6337 40.0427 25.039 40.704C25.4443 41.344 26.063 41.664 26.895 41.664C27.407 41.664 27.951 41.5253 28.527 41.248C29.103 40.9493 29.679 40.5653 30.255 40.096L31.215 41.44C30.6177 42.208 29.7857 42.9013 28.719 43.52C27.6523 44.1173 26.4577 44.416 25.135 44.416C23.7483 44.416 22.575 43.968 21.615 43.072C20.655 42.1547 20.175 40.7253 20.175 38.784C20.175 37.2267 20.495 35.7867 21.135 34.464C21.775 33.1413 22.671 32.0747 23.823 31.264C24.975 30.4533 26.3083 30.048 27.823 30.048ZM37.2055 44.288C36.0322 44.288 35.0722 43.8187 34.3255 42.88C33.5788 41.9413 33.2162 40.6187 33.2375 38.912C33.2588 37.312 33.5895 35.8613 34.2295 34.56C34.8695 33.2373 35.7442 32.192 36.8535 31.424C37.9628 30.6347 39.2322 30.24 40.6615 30.24C41.3442 30.24 42.0162 30.3147 42.6775 30.464C43.3388 30.592 43.9148 30.7413 44.4055 30.912L43.2535 33.12C42.8482 32.8213 42.4428 32.576 42.0375 32.384C41.6535 32.192 41.1842 32.096 40.6295 32.096C40.0962 32.096 39.6375 32.2667 39.2535 32.608C38.8695 32.928 38.5495 33.376 38.2935 33.952C38.0375 34.528 37.8455 35.1787 37.7175 35.904C37.5895 36.6293 37.5255 37.3867 37.5255 38.176C37.5042 39.2427 37.6108 40.064 37.8455 40.64C38.0802 41.1947 38.3895 41.472 38.7735 41.472C39.0508 41.472 39.3282 41.3653 39.6055 41.152C39.9042 40.9387 40.2135 40.608 40.5335 40.16C40.8535 39.712 41.1628 39.1573 41.4615 38.496L41.9415 38.72C41.6215 40.5547 41.0242 41.9413 40.1495 42.88C39.2962 43.8187 38.3148 44.288 37.2055 44.288ZM43.4775 44.224C42.7308 44.224 42.1975 44.032 41.8775 43.648C41.5575 43.2427 41.3762 42.6667 41.3335 41.92C41.3122 41.6427 41.3015 41.2693 41.3015 40.8C41.3015 40.3307 41.3015 39.936 41.3015 39.616L42.2935 31.84L45.6855 30.08L46.4535 30.72L45.3975 39.264C45.3762 39.52 45.3442 39.7973 45.3015 40.096C45.2802 40.3733 45.2695 40.5973 45.2695 40.768C45.2695 41.152 45.3975 41.344 45.6535 41.344C45.8028 41.344 46.0055 41.2907 46.2615 41.184C46.5388 41.056 46.9228 40.8533 47.4135 40.576L48.1175 42.112C47.3922 42.7733 46.6135 43.296 45.7815 43.68C44.9708 44.0427 44.2028 44.224 43.4775 44.224ZM54.1633 44.416C52.8193 44.416 51.6779 43.968 50.7393 43.072C49.8006 42.1547 49.3313 40.736 49.3313 38.816C49.3526 37.1947 49.6833 35.7227 50.3233 34.4C50.9846 33.0773 51.8913 32.0213 53.0433 31.232C54.1953 30.4427 55.5073 30.048 56.9792 30.048C57.5126 30.048 58.0246 30.1013 58.5153 30.208C59.0273 30.3147 59.4966 30.4853 59.9233 30.72C60.2859 30.912 60.5526 31.1467 60.7233 31.424C60.8939 31.68 60.9793 31.968 60.9793 32.288C60.9793 32.8853 60.8939 33.5253 60.7233 34.208C60.5526 34.8907 60.3606 35.4773 60.1473 35.968H58.2273C58.0139 34.5173 57.7793 33.4827 57.5233 32.864C57.2673 32.224 56.8619 31.904 56.3073 31.904C55.8593 31.904 55.4219 32.128 54.9953 32.576C54.5899 33.024 54.2593 33.6853 54.0033 34.56C53.7473 35.4347 53.6086 36.512 53.5873 37.792C53.5873 39.2213 53.8113 40.224 54.2593 40.8C54.7286 41.376 55.3259 41.664 56.0513 41.664C56.6273 41.664 57.2139 41.4933 57.8113 41.152C58.4086 40.8107 58.9313 40.4373 59.3793 40.032L60.3393 41.376C59.7846 42.1653 58.9633 42.8693 57.8753 43.488C56.7873 44.1067 55.5499 44.416 54.1633 44.416ZM72.537 44.224C71.8757 44.224 71.353 44.064 70.969 43.744C70.6063 43.4027 70.425 42.8587 70.425 42.112C70.425 41.6427 70.457 41.1947 70.521 40.768C70.585 40.32 70.6597 39.8293 70.745 39.296C70.8303 38.784 70.9157 38.2507 71.001 37.696C71.0863 37.12 71.161 36.5653 71.225 36.032C71.289 35.4987 71.321 35.04 71.321 34.656C71.321 34.1653 71.2463 33.7813 71.097 33.504C70.969 33.2053 70.7237 33.056 70.361 33.056C70.105 33.056 69.8063 33.152 69.465 33.344C69.1237 33.536 68.7717 33.8347 68.409 34.24C68.0463 34.624 67.7157 35.1147 67.417 35.712L67.097 34.88C67.7157 33.1947 68.4517 32 69.305 31.296C70.1797 30.592 71.1397 30.24 72.185 30.24C73.1877 30.24 73.9877 30.5707 74.585 31.232C75.2037 31.872 75.513 32.768 75.513 33.92C75.513 34.496 75.4703 35.0827 75.385 35.68C75.321 36.256 75.2357 36.8213 75.129 37.376C75.0223 37.9307 74.9263 38.4533 74.841 38.944C74.7557 39.392 74.6917 39.7653 74.649 40.064C74.6063 40.3627 74.585 40.6293 74.585 40.864C74.585 41.184 74.713 41.344 74.969 41.344C75.1183 41.344 75.3317 41.2907 75.609 41.184C75.9077 41.056 76.281 40.8533 76.729 40.576L77.433 42.08C76.7077 42.8053 75.9077 43.3493 75.033 43.712C74.1583 44.0533 73.3263 44.224 72.537 44.224ZM62.681 44L64.697 28.032C64.7397 27.7973 64.7717 27.4987 64.793 27.136C64.8357 26.752 64.857 26.4747 64.857 26.304C64.857 25.9627 64.7717 25.728 64.601 25.6C64.4303 25.4507 64.1743 25.376 63.833 25.376H62.873L63.065 23.776C63.8543 23.4773 64.5477 23.264 65.145 23.136C65.7637 23.008 66.3503 22.944 66.905 22.944C67.6943 22.944 68.249 23.104 68.569 23.424C68.889 23.744 69.049 24.2027 69.049 24.8C69.049 24.9707 69.0277 25.2053 68.985 25.504C68.9637 25.7813 68.9317 26.1227 68.889 26.528L66.873 44H62.681Z" fill="#EBA418"/>
</svg>
