<svg width="52" height="52" viewBox="0 0 52 52" fill="none" xmlns="http://www.w3.org/2000/svg">
<path d="M26 0C11.634 0 0 11.634 0 26C0 40.366 11.634 52 26 52C40.366 52 52 40.366 52 26C52 11.634 40.3433 0 26 0ZM43.0525 29.5517L40.2522 38.4308C40.1839 38.6585 39.8879 38.704 39.7513 38.5219L38.7723 37.2242C37.6795 38.1121 36.2224 39.2049 36.1313 39.2732C35.9492 39.4326 32.9895 40.8669 31.0771 41.3222C29.1646 41.7548 27.4116 41.9825 25.7723 41.9825C22.289 41.9825 19.3065 41.345 16.7793 40.0245C14.275 38.7268 12.317 36.8827 10.9737 34.4921C9.6077 32.1016 8.92469 29.2785 8.92469 26.0228C8.92469 22.8354 9.58494 20.0578 10.9054 17.6672C12.2259 15.2767 14.0473 13.4098 16.3695 12.0438C18.6918 10.6778 21.3327 9.99475 24.3152 9.99475C28.6637 9.99475 32.1243 11.3835 34.6515 14.1384C37.1786 16.8932 38.4536 20.6725 38.4536 25.4536C38.4536 27.0018 37.4518 27.7758 35.4483 27.7758H16.4834C17.0753 33.2627 20.2172 35.9948 25.9089 35.9948C27.0017 35.9948 28.2312 35.8581 29.5744 35.5849C30.9405 35.3117 32.2154 34.8336 33.4448 34.1734C33.7636 33.9912 34.5604 33.3765 35.4256 32.739L34.3327 31.2592C34.1961 31.0771 34.2872 30.8266 34.5149 30.7811L42.7566 29.1419C42.9387 29.1419 43.1208 29.3468 43.0525 29.5517Z" fill="#EBA417"/>
</svg>
